<svg width="115" height="786" viewBox="0 0 115 786" fill="none" xmlns="http://www.w3.org/2000/svg">
<path d="M29.3087 54.9822L29.3094 54.9807L57.5018 1.0745L85.9234 54.9807L85.9241 54.9822L114.436 109.499L57.4998 217.924C51.4845 206.48 45.9917 196.044 40.7082 186.006C27.6277 161.154 15.8304 138.741 0.564638 109.5L29.3087 54.9822Z" stroke="white"/>
<path d="M52.5044 133.499V132.769C53.6724 132.769 54.4024 132.428 54.6944 131.747C55.0351 131.017 55.2054 130.165 55.2054 129.192V94.225C55.2054 93.7384 54.9621 93.495 54.4754 93.495C54.2807 93.495 54.0131 93.568 53.6724 93.714L45.3504 96.342V93.714L62.3594 87.801V89.772C61.5807 90.1127 60.9481 90.648 60.4614 91.378C60.0234 92.108 59.8531 92.9597 59.9504 93.933V128.9C59.9504 129.922 60.1207 130.822 60.4614 131.601C60.8021 132.38 61.5807 132.769 62.7974 132.769V133.499H52.5044Z" fill="#0C0B10"/>
<path d="M29.3087 336.982L29.3094 336.98L57.5018 283.074L85.9234 336.98L85.9241 336.982L114.436 391.498L57.4998 499.923C51.4845 488.479 45.9917 478.044 40.7082 468.005C27.6277 443.154 15.8304 420.74 0.564638 391.5L29.3087 336.982Z" stroke="white"/>
<path d="M43.5318 375.259H44.1888C44.4322 375.259 44.7242 375.138 45.0648 374.894C45.4542 374.651 45.8678 374.383 46.3058 374.091C46.7925 373.751 47.3522 373.361 47.9848 372.923C48.6662 372.485 49.4205 372.096 50.2478 371.755C51.1238 371.366 52.0972 371.05 53.1678 370.806C54.2385 370.563 55.4308 370.441 56.7448 370.441C58.3995 370.441 60.0055 370.685 61.5628 371.171C63.1202 371.609 64.5072 372.315 65.7238 373.288C66.9405 374.213 67.9138 375.405 68.6438 376.865C69.3738 378.325 69.7388 380.077 69.7388 382.121C69.7388 383.825 69.4468 385.382 68.8628 386.793C68.2788 388.205 67.4758 389.519 66.4538 390.735C65.4805 391.952 64.3612 393.12 63.0958 394.239C61.8792 395.31 60.6138 396.381 59.2998 397.451C58.0345 398.473 56.7935 399.52 55.5768 400.59C54.4088 401.661 53.3382 402.78 52.3648 403.948C51.4402 405.116 50.6615 406.382 50.0288 407.744C49.3962 409.058 49.0312 410.47 48.9338 411.978H64.1178C65.9672 411.978 67.4272 411.662 68.4978 411.029C69.5685 410.348 70.1282 409.253 70.1768 407.744H70.8338V416.066H43.8238C43.8238 413.876 44.1888 411.857 44.9188 410.007C45.6488 408.109 46.5978 406.382 47.7658 404.824C48.9338 403.218 50.2235 401.734 51.6348 400.371C53.0948 399.009 54.5305 397.695 55.9418 396.429C57.1098 395.407 58.2292 394.385 59.2998 393.363C60.4192 392.341 61.3925 391.319 62.2198 390.297C63.0958 389.227 63.7772 388.132 64.2638 387.012C64.7992 385.844 65.0668 384.628 65.0668 383.362C65.0668 381.756 64.7748 380.321 64.1908 379.055C63.6555 377.79 62.9255 376.719 62.0008 375.843C61.1248 374.967 60.1028 374.31 58.9348 373.872C57.7668 373.386 56.5988 373.142 55.4308 373.142C52.9488 373.142 50.7588 373.897 48.8608 375.405C46.9628 376.865 45.4298 378.763 44.2618 381.099H43.5318V375.259Z" fill="#0C0B10"/>
<path d="M29.3087 621.982L29.3094 621.98L57.5018 568.074L85.9234 621.98L85.9241 621.982L114.436 676.498L57.4998 784.923C51.4845 773.479 45.9917 763.044 40.7082 753.005C27.6277 728.154 15.8304 705.74 0.564638 676.5L29.3087 621.982Z" stroke="white"/>
<path d="M45.0394 652.018H45.6964C46.0857 652.018 46.4994 651.945 46.9374 651.799C47.3754 651.653 47.8621 651.483 48.3974 651.288C49.2247 650.996 50.2224 650.704 51.3904 650.412C52.5584 650.072 53.9941 649.901 55.6974 649.901C57.6441 649.901 59.3717 650.193 60.8804 650.777C62.4377 651.313 63.7274 652.067 64.7494 653.04C65.8201 653.965 66.6231 655.06 67.1584 656.325C67.7424 657.591 68.0344 658.905 68.0344 660.267C68.0344 662.165 67.4504 663.99 66.2824 665.742C65.1631 667.494 63.4111 668.906 61.0264 669.976C64.3844 670.95 66.8907 672.507 68.5454 674.648C70.2001 676.79 71.0274 679.223 71.0274 681.948C71.0274 683.992 70.6381 685.89 69.8594 687.642C69.1294 689.346 68.0344 690.854 66.5744 692.168C65.1631 693.434 63.4597 694.431 61.4644 695.161C59.4691 695.891 57.2304 696.256 54.7484 696.256C52.8991 696.256 51.3661 696.086 50.1494 695.745C48.9327 695.405 47.9107 695.088 47.0834 694.796C46.5481 694.602 46.0614 694.456 45.6234 694.358C45.1854 694.212 44.7474 694.139 44.3094 694.139H43.6524V688.518H44.3824C45.6477 690.27 47.2051 691.609 49.0544 692.533C50.9524 693.409 52.8991 693.847 54.8944 693.847C56.6464 693.847 58.2281 693.555 59.6394 692.971C61.0507 692.339 62.2431 691.511 63.2164 690.489C64.2384 689.467 64.9927 688.299 65.4794 686.985C66.0147 685.671 66.2824 684.309 66.2824 682.897C66.2824 681.437 65.9904 680.026 65.4064 678.663C64.8224 677.252 63.9951 676.011 62.9244 674.94C61.8537 673.87 60.5397 673.018 58.9824 672.385C57.4737 671.753 55.7461 671.436 53.7994 671.436H50.4414V669.027H54.1644C55.6731 669.027 56.9871 668.784 58.1064 668.297C59.2744 667.811 60.2477 667.154 61.0264 666.326C61.8051 665.499 62.3891 664.574 62.7784 663.552C63.1677 662.53 63.3624 661.46 63.3624 660.34C63.3624 659.318 63.1677 658.321 62.7784 657.347C62.4377 656.374 61.9024 655.522 61.1724 654.792C60.4424 654.014 59.5421 653.381 58.4714 652.894C57.4494 652.408 56.2571 652.164 54.8944 652.164C53.2397 652.164 51.5851 652.627 49.9304 653.551C48.2757 654.476 46.8887 655.863 45.7694 657.712H45.0394V652.018Z" fill="#0C0B10"/>
<line x1="57.5" y1="216.999" x2="57.5" y2="283.999" stroke="white"/>
<line x1="57.5" y1="497.999" x2="57.5" y2="568.999" stroke="white"/>
</svg>
